<?xml version="1.0" encoding="iso-8859-1"?>
<!-- Generator: Adobe Illustrator 19.0.0, SVG Export Plug-In . SVG Version: 6.00 Build 0)  -->
<svg version="1.1" id="Capa_1" xmlns="http://www.w3.org/2000/svg" xmlns:xlink="http://www.w3.org/1999/xlink" x="0px" y="0px"
	 viewBox="0 0 504.096 504.096" style="enable-background:new 0 0 504.096 504.096;" xml:space="preserve">
<g>
	<g>
		<g>
			<path d="M19.044,350.136L9.702,452.985c-2.06,24.126,14.472,45.897,38.265,50.392c2.759,0.474,5.554,0.714,8.354,0.719
				c20.509,0.044,38.651-13.289,44.733-32.876l31.618-102.669C94.432,384.985,50.136,377.806,19.044,350.136z"/>
			<path d="M416.737,359.248c48.413-1.619,86.822-41.334,86.821-89.774c-0.083-46.097-34.984-84.679-80.842-89.369V53.895h35.93V0
				H323.908v53.895h80.842v126.21c-48.197,4.845-83.871,47.036-80.637,95.368C327.348,323.805,368.324,360.867,416.737,359.248z
				 M485.593,269.474c0,14.883-12.065,26.947-26.947,26.947s-26.947-12.065-26.947-26.947s12.065-26.947,26.947-26.947
				C473.51,242.57,485.549,254.609,485.593,269.474z M359.838,35.93h-8.982c-4.961,0-8.982-4.022-8.982-8.982
				s4.022-8.982,8.982-8.982h8.982c4.961,0,8.982,4.022,8.982,8.982S364.799,35.93,359.838,35.93z M395.768,35.93
				c-4.955-0.015-8.968-4.028-8.982-8.982c0.015-4.955,4.028-8.968,8.982-8.982h35.93c4.961,0,8.982,4.022,8.982,8.982
				s-4.022,8.982-8.982,8.982H395.768z M413.733,197.614c14.883,0,26.947,12.065,26.947,26.947s-12.065,26.947-26.947,26.947
				s-26.947-12.065-26.947-26.947C386.829,209.697,398.868,197.657,413.733,197.614z M341.873,269.474
				c0-14.883,12.065-26.947,26.947-26.947c14.883,0,26.947,12.065,26.947,26.947s-12.065,26.947-26.947,26.947
				C353.956,296.378,341.917,284.338,341.873,269.474z M386.786,314.386c0-14.883,12.065-26.947,26.947-26.947
				s26.947,12.065,26.947,26.947c0,14.883-12.065,26.947-26.947,26.947C398.868,341.29,386.829,329.251,386.786,314.386z"/>
			<path d="M484.964,350.136c-19.618,17.464-44.966,27.117-71.231,27.127c-14.547-0.007-28.941-2.972-42.307-8.713l31.618,102.759
				c6.1,19.561,24.242,32.859,44.733,32.786c2.77-0.001,5.535-0.241,8.264-0.719c23.793-4.494,40.325-26.265,38.265-50.392
				L484.964,350.136z"/>
			<path d="M99.347,180.105V53.895h35.93V0H0.54v53.895h80.842v126.21c-47.621,4.786-83.125,46.07-80.729,93.871
				c2.396,47.801,41.851,85.328,89.712,85.328s87.316-37.527,89.712-85.328S146.968,184.891,99.347,180.105z M36.47,35.93h-8.982
				c-4.961,0-8.982-4.022-8.982-8.982s4.022-8.982,8.982-8.982h8.982c4.961,0,8.982,4.022,8.982,8.982S41.431,35.93,36.47,35.93z
				 M72.4,35.93c-4.961,0-8.982-4.022-8.982-8.982s4.022-8.982,8.982-8.982h35.93c4.961,0,8.982,4.022,8.982,8.982
				s-4.022,8.982-8.982,8.982H72.4z M153.242,281.061c-0.028,8.471-6.889,15.332-15.36,15.36h-20.57v20.57
				c-0.028,8.471-6.889,15.332-15.36,15.36H78.777c-8.471-0.028-15.332-6.889-15.36-15.36v-20.57h-20.57
				c-8.471-0.028-15.332-6.889-15.36-15.36v-23.175c0.028-8.471,6.888-15.332,15.36-15.36h20.57v-20.57
				c0.028-8.471,6.888-15.332,15.36-15.36h23.175c8.472,0.028,15.332,6.888,15.36,15.36v20.57h20.57
				c8.471,0.028,15.332,6.888,15.36,15.36V281.061z"/>
			<path d="M99.347,251.509v-26.947H81.382v26.947c-0.015,4.955-4.028,8.968-8.982,8.982H45.452v17.965H72.4
				c4.955,0.015,8.968,4.028,8.982,8.982v26.947h17.965v-26.947c0.015-4.955,4.028-8.968,8.982-8.982h26.947v-17.965h-26.947
				C103.375,260.476,99.362,256.464,99.347,251.509z"/>
			<circle cx="413.733" cy="224.561" r="8.982"/>
			<path d="M312.501,306.032c-12.29-33.375-7.1-70.683,13.833-99.436h-38.355v-53.895h17.965V98.807H171.207v53.895h98.807v53.895
				h-92.25c20.933,28.753,26.123,66.061,13.833,99.436c2.17-0.347,4.36-0.557,6.557-0.629c21.324,0.055,39.691,15.048,44.014,35.93
				h19.761c4.323-20.882,22.69-35.875,44.014-35.93C308.14,305.475,310.33,305.685,312.501,306.032z M207.136,134.737h-8.982
				c-4.961,0-8.982-4.022-8.982-8.982s4.022-8.982,8.982-8.982h8.982c4.961,0,8.982,4.022,8.982,8.982
				S212.097,134.737,207.136,134.737z M243.066,134.737c-4.955-0.015-8.968-4.028-8.982-8.982c0.015-4.955,4.028-8.968,8.982-8.982
				h35.93c4.961,0,8.982,4.022,8.982,8.982s-4.022,8.982-8.982,8.982H243.066z M234.084,242.526h-17.965
				c-4.961,0-8.982-4.022-8.982-8.982s4.022-8.982,8.982-8.982h17.965c4.961,0,8.982,4.022,8.982,8.982
				S239.045,242.526,234.084,242.526z M287.979,242.526h-17.965c-4.961,0-8.982-4.022-8.982-8.982s4.022-8.982,8.982-8.982h17.965
				c4.961,0,8.982,4.022,8.982,8.982S292.939,242.526,287.979,242.526z"/>
			<circle cx="305.943" cy="350.316" r="26.947"/>
			<circle cx="198.154" cy="350.316" r="26.947"/>
			<circle cx="458.645" cy="269.474" r="8.982"/>
			<circle cx="368.821" cy="269.474" r="8.982"/>
			<circle cx="413.733" cy="314.386" r="8.982"/>
		</g>
	</g>
</g>
<g>
</g>
<g>
</g>
<g>
</g>
<g>
</g>
<g>
</g>
<g>
</g>
<g>
</g>
<g>
</g>
<g>
</g>
<g>
</g>
<g>
</g>
<g>
</g>
<g>
</g>
<g>
</g>
<g>
</g>
</svg>
